<?xml version="1.0" encoding="utf-8"?>
<!-- Generator: Adobe Illustrator 16.0.0, SVG Export Plug-In . SVG Version: 6.00 Build 0)  -->
<!DOCTYPE svg PUBLIC "-//W3C//DTD SVG 1.1//EN" "http://www.w3.org/Graphics/SVG/1.1/DTD/svg11.dtd">
<svg version="1.1" id="Layer_1" xmlns="http://www.w3.org/2000/svg" xmlns:xlink="http://www.w3.org/1999/xlink" x="0px" y="0px"
	 width="68.111px" height="13px" viewBox="0 0 68.111 13" enable-background="new 0 0 68.111 13" xml:space="preserve">
<g>
	<path fill="#F7931E" d="M3.977,3.139h2.832c1.492,0,2.283,0.638,2.283,1.633c0,0.721-0.507,1.279-1.263,1.429v0.064
		C8.668,6.296,9.347,6.898,9.347,7.82c0,1.074-0.877,1.85-2.296,1.85H3.977V3.139z M6.477,5.779c0.465,0,0.791-0.223,0.791-0.625
		S6.942,4.529,6.502,4.529H5.75v1.25H6.477z M6.579,8.254c0.596,0,0.893-0.227,0.893-0.663c0-0.459-0.328-0.714-0.867-0.714H5.75
		v1.377H6.579z"/>
	<path fill="#FFFFFF" d="M13.136,9.759c-1.786,0-3.176-1.187-3.176-3.354c0-2.181,1.39-3.355,3.176-3.355
		c1.773,0,3.176,1.174,3.176,3.355C16.312,8.586,14.909,9.759,13.136,9.759z M13.136,4.593c-0.88,0-1.352,0.638-1.352,1.812
		s0.472,1.812,1.352,1.812s1.352-0.638,1.352-1.812S14.016,4.593,13.136,4.593z"/>
	<path fill="#FFFF00" d="M17.144,3.139h2.819c1.451,0,2.424,0.829,2.424,2.22c0,0.906-0.415,1.54-1.11,1.875l1.327,2.437h-1.926
		l-1.148-2.156h-0.612V9.67h-1.773V3.139z M19.542,6.136c0.622,0,0.995-0.22,0.995-0.778c0-0.562-0.373-0.804-0.995-0.804h-0.625
		v1.582H19.542z"/>
	<path fill="#FF00FF" d="M22.973,3.139h5.677v1.429h-1.964V9.67h-1.748V4.567h-1.965V3.139z"/>
	<path fill="#00FFFF" d="M28.278,9.67l2.156-6.531h2.424l2.156,6.531H33.1l-0.376-1.25h-2.156l-0.376,1.25H28.278z M32.322,7.093
		l-0.651-2.156h-0.051L30.97,7.093H32.322z"/>
	<path fill="#FFFFFF" d="M35.654,3.139h1.773v2.641h0.089l1.964-2.641h2.066l-2.206,2.908l2.258,3.623H39.48l-1.467-2.449
		l-0.587,0.766V9.67h-1.773V3.139z"/>
	<path fill="#00FF00" d="M45.209,7.744h0.052L46.6,3.139h2.003L46.446,9.67h-2.423l-2.156-6.531h2.003L45.209,7.744z"/>
	<path fill="#FFFFFF" d="M47.953,9.67l2.156-6.531h2.423l2.156,6.531h-1.913l-0.377-1.25h-2.155l-0.377,1.25H47.953z M49.535,1.825
		c0-0.408,0.344-0.74,0.778-0.74c0.421,0,0.765,0.332,0.765,0.74s-0.344,0.74-0.765,0.74C49.879,2.564,49.535,2.233,49.535,1.825z
		 M51.997,7.093l-0.65-2.156h-0.052l-0.65,2.156H51.997z M51.563,1.825c0-0.408,0.344-0.74,0.777-0.74
		c0.422,0,0.766,0.332,0.766,0.74s-0.344,0.74-0.766,0.74C51.907,2.564,51.563,2.233,51.563,1.825z"/>
	<path fill="#FF00FF" d="M55.329,3.139h1.773v5.103h2.641V9.67h-4.414V3.139z"/>
	<path fill="#00FFFF" d="M60.468,3.139h1.773v5.103h2.641V9.67h-4.414V3.139z"/>
</g>
</svg>
